<svg xmlns="http://www.w3.org/2000/svg" viewBox="0 0 16 16" fill="#ffffff"><title>Instagram</title><path d="M15.952 4.702a5.872 5.872 0 0 0-.372-1.942 3.922 3.922 0 0 0-.923-1.417A3.922 3.922 0 0 0 13.24.42a5.872 5.872 0 0 0-1.941-.372C10.444.008 10.172 0 8 0 5.828 0 5.556.009 4.702.048A5.872 5.872 0 0 0 2.76.42a3.922 3.922 0 0 0-1.418.923c-.407.4-.722.883-.923 1.417a5.872 5.872 0 0 0-.372 1.941C.01 5.556 0 5.828 0 8c0 2.172.009 2.444.048 3.298.013.664.139 1.32.372 1.942.2.534.516 1.017.923 1.417.4.407.883.722 1.417.923a5.872 5.872 0 0 0 1.941.372C5.556 15.992 5.828 16 8 16c2.172 0 2.444-.009 3.298-.048a5.872 5.872 0 0 0 1.942-.372 4.09 4.09 0 0 0 2.34-2.34 5.872 5.872 0 0 0 .372-1.941c.04-.855.048-1.127.048-3.299 0-2.172-.009-2.444-.048-3.298zm-1.44 6.53c-.006.508-.1 1.01-.276 1.485a2.649 2.649 0 0 1-1.518 1.52c-.475.176-.978.269-1.485.275-.845.038-1.097.046-3.233.046s-2.39-.008-3.233-.046a4.426 4.426 0 0 1-1.484-.276 2.478 2.478 0 0 1-.921-.598 2.478 2.478 0 0 1-.598-.92 4.425 4.425 0 0 1-.276-1.485c-.038-.845-.046-1.097-.046-3.233s.008-2.39.046-3.233c.006-.507.1-1.009.276-1.484.128-.348.332-.663.598-.921.258-.266.572-.47.92-.598.475-.177.978-.27 1.485-.276.845-.038 1.097-.046 3.233-.046s2.39.008 3.233.046c.507.006 1.009.1 1.484.276.348.128.663.332.921.598.266.258.47.572.598.92.177.475.27.978.276 1.485.038.845.046 1.097.046 3.233s-.008 2.39-.046 3.233zM8 3.893a4.108 4.108 0 1 0 0 8.216 4.108 4.108 0 0 0 0-8.216zm0 6.775a2.667 2.667 0 1 1 0-5.334 2.667 2.667 0 0 1 0 5.334zm5.23-6.937a.96.96 0 1 1-1.92 0 .96.96 0 0 1 1.92 0z"></path></svg>