<svg xmlns="http://www.w3.org/2000/svg" viewBox="0 0 23 22" fill="#ffffff"><title>LinkedIn</title><path fill-rule="evenodd" d="M5.475 7.219v14.09H.711V7.22h4.764zm.304-4.351c.014 1.35-1.026 2.431-2.686 2.431h-.029C1.461 5.3.436 4.22.436 2.868c0-1.38 1.069-2.432 2.686-2.432 1.631 0 2.642 1.053 2.657 2.432zm7.074 6.353c.627-.965 1.758-2.33 4.289-2.33 3.133 0 5.472 2.02 5.472 6.342v8.076h-4.75v-7.536c0-1.89-.694-3.185-2.412-3.185-1.314 0-2.093.868-2.44 1.707-.115.312-.159.725-.159 1.151v7.863h-4.75c.058-12.768 0-14.09 0-14.09h4.75V9.22z"></path></svg>