<svg xmlns="http://www.w3.org/2000/svg" fill="none" viewBox="0 0 382 84" aria-labelledby="63d29a5c75fb3-t"><title id="63d29a5c75fb3-t">Merkle</title><path fill="#fff" d="M87.091 47.721H76.944v-28.35L61.722 34.572 46.5 19.371v28.35H36.352V0h5.395L61.85 20.076 81.696 0h5.395z"></path><path fill="#f23a1d" d="M26.204 21.436H0l26.204 26.17z"></path><path fill="#fff" d="M146.815 47.581h-46.363V0h44.404v9.804h-34.217v7.843h22.463v9.542h-22.463v10.85h36.176zm62.641 0h-11.344L185.594 28.21h-16.56v19.37h-10.04V.256h31.816c4.694 0 8.345 1.17 11.213 3.38 3.13 2.47 4.695 5.98 4.695 10.531 0 3.12-.913 5.851-2.608 8.321-1.826 2.47-4.173 4.16-7.172 5.2zm-13.039-33.414c0-1.3-.391-2.34-1.304-3.12-.913-.65-2.478-1.04-4.434-1.04h-21.645v8.71h21.645c2.087 0 3.521-.39 4.434-1.17.913-1.17 1.304-2.21 1.304-3.38zm73.65 33.414h-11.882l-17.627-23.663-7.182 6.111v17.552h-10.185V.256h10.185v17.682L254.398.256H268.5l-20.63 17.422zm54.581 0h-42.777V0h10.173v38.039h32.604zm57.338 0h-46.365V0h44.404v9.804h-34.347v7.843h22.464v9.542h-22.464v10.85h36.308z"></path><g fill="#fff"><path d="M217.364 63.222l-.002 2.692-1.726-.002c-5.087-.004-6.15 3.8-6.154 6.532-.001 2.005.603 3.746 1.706 4.904.944.983 2.212 1.51 3.668 1.514.987 0 1.805-.182 2.497-.545l.016.278 3.358.002.012-15.37zm-4.675 9.137c.002-1.3.37-3.494 2.806-3.666.332-.022 1.219-.085 1.864-.107l-.004 6.726c-.45.3-1.137.526-1.912.543-.76.02-1.427-.22-1.863-.635-.592-.565-.891-1.527-.891-2.86zm16.816 3.533c-1.804-.03-2.783-.996-3.083-2.704l8.145.005v-.131c.019-1.148.002-2.114-.035-2.537-.125-1.441-.651-2.657-1.514-3.503-.965-.947-2.309-1.43-3.992-1.43-1.945-.002-3.549.714-4.641 2.066-.972 1.209-1.507 2.898-1.509 4.762-.003 3.11 1.752 6.435 6.688 6.439 1.886 0 3.732-.58 4.791-1.1l.002-3.113c-.577.323-2.389 1.294-4.852 1.246zm-.484-7.426c1.255 0 2.118.88 2.21 1.998l-4.743-.005c.338-1.216 1.182-1.996 2.533-1.993zm15.732 2.644l-.005 7.502 3.377.004.006-8.005c.003-3.348-1.546-4.975-4.732-4.978-1.092 0-2.302.404-2.766.576l-.016-.278-3.36-.002-.01 12.678 3.376.004.008-9.496c.726-.454 1.863-.642 2.773-.432.908.212 1.351.782 1.349 2.428zm6.235-7.863l-.01 11.004c0 1.52.26 2.579.824 3.326.664.886 1.744 1.316 3.296 1.316 1.252 0 2.459-.27 3.158-.487l.004-3.042c-.433.11-1.771.396-2.544.396-.493 0-.839-.106-1.049-.314-.31-.314-.31-.846-.31-1.36l.005-5.355c1.332 0 2.983.094 3.903.196l.002-2.982-3.904-.007.004-2.69zm19.454 9.233c-.675-.938-1.714-1.414-3.627-1.772-.794-.149-1.726-.313-2.264-.612-.264-.14-.408-.345-.398-.569.004-.223.156-.43.375-.546.495-.265 1.391-.402 2.742-.154a18.11 18.11 0 0 1 3.197.935l.003-3.066c-1.563-.777-2.952-1.082-4.513-1.055-1.455.025-2.709.403-3.634 1.091-.978.73-1.523 1.781-1.582 3.035-.095 2.096 1.223 3.359 4.266 3.953.641.125 1.556.314 1.952.476.398.16.625.424.627.716.003.28-.2.55-.512.681-.577.241-1.492.201-2.093.142-1.745-.176-3.403-.795-4.014-1.068l-.002 3.146c1.032.524 2.653 1.129 4.584 1.096 2.211-.035 4.954-.692 5.456-3.604.186-1.076-.009-2.054-.563-2.824zm6.238.98l.007-7.503-3.372-.002-.005 8.005c-.004 3.345 1.545 4.975 4.729 4.978 1.094 0 2.303-.406 2.765-.574l.017.278h3.36l.01-12.678-3.379-.004-.007 9.496c-.725.46-1.863.645-2.773.432-.906-.21-1.352-.784-1.352-2.428zm26.336 4.396a12.95 12.95 0 0 1-1.958.8 6.663 6.663 0 0 1-1.971.284c-.886 0-1.698-.135-2.436-.404a4.94 4.94 0 0 1-1.9-1.226c-.535-.548-.948-1.24-1.241-2.076-.292-.836-.44-1.814-.44-2.93 0-2.083.551-3.718 1.652-4.904 1.1-1.186 2.556-1.78 4.363-1.78a7.12 7.12 0 0 1 2.07.31c.677.206 1.297.521 1.859.818v2.046s-.993-.683-1.864-1.063a5.7 5.7 0 0 0-2.153-.463c-1.291 0-2.287.595-2.885 1.394-.628.841-1.059 2.084-1.059 3.642 0 1.512.386 2.804 1.047 3.617.662.811 1.846 1.352 2.897 1.352.416 0 .866-.058 1.298-.173a7.721 7.721 0 0 0 1.219-.447 9.963 9.963 0 0 0 1.502-.873zm13.067-5.57c0 2.076-.5 3.713-1.5 4.915s-2.34 1.802-4.019 1.802c-1.693 0-3.039-.6-4.036-1.802-.996-1.202-1.495-2.839-1.495-4.915s.499-3.716 1.495-4.92c.997-1.206 2.343-1.808 4.036-1.808 1.679 0 3.019.602 4.019 1.807.999 1.207 1.5 2.846 1.5 4.921zm-1.92 0c0-1.718-.318-2.996-.953-3.832-.636-.836-1.518-1.254-2.648-1.254-1.144 0-2.032.418-2.664 1.254s-.948 2.114-.948 3.832c0 1.663.318 2.926.953 3.786.636.858 1.521 1.288 2.659 1.288 1.121 0 2.002-.425 2.643-1.278.638-.85.958-2.115.958-3.796zm19.235-5.479c.748.787 1.029 1.663 1.029 3.02v8.867h-1.891v-7.982c0-.51-.015-.99-.085-1.436-.109-.687-.51-2.032-2.429-2.032a5.49 5.49 0 0 0-2.814.778l-.217.134c.151.473.217 1.016.217 1.67v8.868h-1.891v-7.982c0-.51-.016-.99-.085-1.434-.11-.689-.511-2.032-2.43-2.032a5.49 5.49 0 0 0-2.814.778v10.672h-1.889V65.905h1.889v.31a7.028 7.028 0 0 1 2.913-.587c1.53 0 2.546.457 3.201 1.104.342-.184.722-.37 1.074-.518 1.349-.574 2.306-.586 2.945-.586 1.592-.002 2.626.494 3.277 1.179zm13.405 5.381c0 1.9-.46 3.624-1.455 4.836-1.037 1.262-2.382 1.954-4.32 1.954-.583 0-1.665-.144-2.329-.284v3.052h-1.89V65.929h1.89v.28a7.732 7.732 0 0 1 2.996-.59c1.637 0 3.116.707 3.927 1.867.837 1.2 1.181 2.468 1.181 4.702zm-1.967-.09c0-1.665-.212-2.406-.677-3.228-.561-.986-1.745-1.342-2.704-1.342a7.08 7.08 0 0 0-2.756.55v8.769c.671.15 1.959.243 2.718.147.875-.11 1.592-.303 2.295-1.087.735-.818 1.124-2.096 1.124-3.81zm13.176 6.597h-1.89v-.208c-.344.137-1.235.515-2.848.515-.764 0-2.417-.144-3.572-1.24a4.128 4.128 0 0 1-1.241-2.92c0-1.103.182-1.663.549-2.345a4.343 4.343 0 0 1 1.594-1.67c1.705-1.007 3.908-.991 5.106-.991h.412v-.465c0-.423-.075-.775-.226-1.053a1.627 1.627 0 0 0-.649-.655 2.701 2.701 0 0 0-.966-.307 8.32 8.32 0 0 0-1.177-.08c-.497 0-1.19.083-1.806.213a19.8 19.8 0 0 0-1.844.495v-1.852c.368-.1.901-.208 1.599-.328.698-.12 1.384-.179 2.061-.179.79 0 1.49.064 2.077.195.587.128 1.094.35 1.523.66.422.305.743.699.965 1.183s.332 1.082.332 1.798v9.234zm-1.89-7.259c-.61 0-1.509-.009-2.226.066-.82.085-1.32.177-1.919.477-.519.262-1.568 1.006-1.568 2.513 0 2.018 1.571 2.61 2.363 2.708 1.398.175 2.879-.274 3.348-.749v-5.015zm13.603-.743v8.003h-1.889v-6.498c0-1.672-.038-2.969-.736-3.768-.671-.763-1.466-1.003-2.6-.949-.849.04-1.783.373-2.22.566v10.647h-1.891V65.929h1.891v.285a6.481 6.481 0 0 1 2.691-.595c2.604.002 4.754 1.417 4.754 5.074zm10.295-4.763h1.981l-6.77 15.684h-2.021l2.351-5.239-4.487-10.446h2.051l3.431 8.185zM200.552 78.695h-1.891v-.208c-.344.137-1.235.515-2.848.515-.764 0-2.417-.144-3.571-1.24A4.125 4.125 0 0 1 191 74.841c0-1.103.182-1.663.549-2.345a4.343 4.343 0 0 1 1.594-1.67c1.705-1.007 3.908-.992 5.106-.992h.412v-.464c0-.423-.075-.775-.226-1.053a1.627 1.627 0 0 0-.649-.655 2.693 2.693 0 0 0-.966-.307 8.295 8.295 0 0 0-1.177-.08c-.497 0-1.189.083-1.806.213-.972.207-1.844.494-1.844.494v-1.85a18.92 18.92 0 0 1 1.599-.328c.698-.12 1.384-.178 2.061-.178.79 0 1.49.064 2.077.194.587.128 1.094.35 1.523.66.422.306.743.7.965 1.183.223.484.332 1.082.332 1.799v9.233zm-1.891-7.258c-.61 0-1.509-.01-2.226.066-.82.085-1.32.176-1.919.476-.519.262-1.568 1.006-1.568 2.513 0 2.019 1.572 2.61 2.363 2.709 1.398.175 2.879-.274 3.348-.75v-5.014z"></path><path d="M217.364 63.222l-.002 2.692-1.726-.002c-5.087-.004-6.15 3.8-6.154 6.532-.001 2.005.603 3.746 1.706 4.904.944.983 2.212 1.51 3.668 1.514.987 0 1.805-.182 2.497-.545l.016.278 3.358.002.012-15.37zm-4.675 9.137c.002-1.3.37-3.494 2.806-3.666.332-.022 1.219-.085 1.864-.107l-.004 6.726c-.45.3-1.137.526-1.912.543-.76.02-1.427-.22-1.863-.635-.592-.565-.891-1.527-.891-2.86z"></path></g></svg>