<svg xmlns="http://www.w3.org/2000/svg" viewBox="0 0 19 16" fill="#ffffff"><title>Twitter</title><path d="M16.762 2.53A4.025 4.025 0 0 0 18.476.296a7.63 7.63 0 0 1-2.477.979A3.825 3.825 0 0 0 13.154 0c-2.151 0-3.897 1.808-3.897 4.04 0 .316.034.623.1.92-3.239-.17-6.11-1.776-8.035-4.223A4.146 4.146 0 0 0 .795 2.77c0 1.4.688 2.637 1.734 3.362a3.797 3.797 0 0 1-1.766-.504v.05c0 1.957 1.344 3.59 3.128 3.96a3.68 3.68 0 0 1-1.027.142c-.251 0-.497-.024-.734-.072.496 1.604 1.935 2.773 3.641 2.804A7.648 7.648 0 0 1 0 14.187 10.774 10.774 0 0 0 5.976 16c7.17 0 11.09-6.154 11.09-11.492 0-.176-.003-.351-.01-.523A8.05 8.05 0 0 0 19 1.894a7.553 7.553 0 0 1-2.238.636z"></path></svg>